<svg width="479" height="449" viewBox="0 0 479 449" fill="none" xmlns="http://www.w3.org/2000/svg">
<path d="M442.494 7C442.494 7 315.494 149.5 401.494 146C487.494 142.5 445.161 257.571 426.5 326M478 355.5C102.4 354.7 4.16667 355.167 2 355.5M252.506 44C133.119 51.502 91.506 256.5 224.006 306C356.506 355.5 359.864 84.3409 252.506 44Z" stroke="black" stroke-width="20"/>
<path d="M18 15.0649C29 247.065 179 -5.93508 18 8.06492" stroke="#5E5757" stroke-width="15"/>
<path d="M13 7.5C20.2375 131.132 20.8023 200.968 22 325.5C22 325.5 81.8142 282.856 114 283.5C146.186 284.144 89.5 68 76 98.5" stroke="black" stroke-width="20"/>
<path d="M28.6081 429.3C30.7788 430.004 32.4948 431.133 33.7561 432.688C35.0174 434.213 35.6481 435.959 35.6481 437.924C35.6481 439.772 34.8854 441.517 33.3601 443.16C31.8348 444.773 29.9281 446.064 27.6401 447.032C25.3521 448 23.1814 448.484 21.1281 448.484C19.6614 448.484 18.2241 448.411 16.8161 448.264C14.4694 448.117 12.6508 448.044 11.3601 448.044H5.33211V446.24L9.46811 442.984V417.024L4.80411 415.616L5.90411 413.416H11.3161C13.9854 413.416 16.6108 413.328 19.1921 413.152C21.1868 413.035 22.6534 412.976 23.5921 412.976C25.6454 412.976 27.4494 413.357 29.0041 414.12C30.5588 414.883 31.7614 415.924 32.6121 417.244C33.4628 418.535 33.8881 419.987 33.8881 421.6C33.8881 423.067 33.4041 424.475 32.4361 425.824C31.4681 427.144 30.1921 428.303 28.6081 429.3ZM26.9801 423.756C26.9801 421.527 26.4081 419.723 25.2641 418.344C24.1201 416.936 22.4188 416.232 20.1601 416.232C18.6348 416.232 17.2414 416.613 15.9801 417.376V428.948H21.7001C23.3721 428.948 24.6628 428.508 25.5721 427.628C26.5108 426.719 26.9801 425.428 26.9801 423.756ZM22.3601 444.656C24.3254 444.656 25.8801 444.172 27.0241 443.204C28.1681 442.207 28.7401 440.857 28.7401 439.156C28.7401 436.985 28.1094 435.24 26.8481 433.92C25.6161 432.571 23.7828 431.852 21.3481 431.764C21.1428 431.793 20.8494 431.808 20.4681 431.808H15.9801V443.644C17.7694 444.377 19.8961 444.744 22.3601 444.744V444.656ZM63.8958 448H54.8758V444.172L49.9038 448.088C49.3171 448.323 48.5838 448.44 47.7038 448.44C45.0638 448.44 43.1424 447.795 41.9398 446.504C40.7664 445.184 40.1798 443.6 40.1798 441.752C40.1798 440.667 40.5464 439.611 41.2798 438.584C42.0424 437.528 43.1131 436.531 44.4918 435.592H54.8758V433.568C54.8758 430.224 53.0864 428.552 49.5078 428.552C47.6304 428.552 45.2251 429.535 42.2918 431.5L40.9718 429.52L47.2198 424.548C48.4518 424.225 49.9918 424.064 51.8398 424.064C54.7438 424.064 57.0024 424.753 58.6158 426.132C60.2291 427.511 61.0358 429.52 61.0358 432.16V444.26L64.9958 445.8L63.8958 448ZM49.4198 443.82C51.0624 443.82 52.8811 443.072 54.8758 441.576V437.836H47.3518C46.7651 438.54 46.4718 439.391 46.4718 440.388C46.4718 441.356 46.7358 442.177 47.2638 442.852C47.8211 443.497 48.5398 443.82 49.4198 443.82ZM81.7013 442.896C81.7013 442.192 81.2613 441.517 80.3813 440.872C79.5307 440.227 78.2253 439.435 76.4653 438.496C74.1773 437.264 72.4173 436.164 71.1853 435.196C69.9533 434.199 69.3373 433.04 69.3373 431.72C69.3373 430.664 69.8067 429.535 70.7453 428.332C71.684 427.129 72.828 426.117 74.1773 425.296C75.556 424.475 76.8173 424.064 77.9613 424.064C79.3693 424.064 80.9973 424.24 82.8453 424.592C84.7227 424.915 86.0867 425.281 86.9373 425.692V432.688H84.8253C83.9747 431.016 82.948 429.711 81.7453 428.772C80.572 427.833 79.3693 427.364 78.1373 427.364C77.3453 427.364 76.7147 427.584 76.2453 428.024C75.776 428.435 75.5413 428.948 75.5413 429.564C75.5413 430.356 75.9813 431.089 76.8613 431.764C77.7707 432.439 79.1347 433.26 80.9533 434.228C82.4787 435.049 83.6813 435.753 84.5613 436.34C85.4707 436.897 86.248 437.557 86.8933 438.32C87.5387 439.053 87.8613 439.875 87.8613 440.784C87.8613 441.869 87.3627 443.013 86.3653 444.216C85.3973 445.389 84.2093 446.387 82.8013 447.208C81.4227 448.029 80.1467 448.44 78.9733 448.44C77.448 448.44 75.644 448.279 73.5613 447.956C71.508 447.604 70.0413 447.223 69.1613 446.812V439.684H71.2733C72.2413 441.415 73.4 442.764 74.7493 443.732C76.128 444.671 77.5067 445.14 78.8853 445.14C79.7067 445.14 80.3813 444.92 80.9093 444.48C81.4373 444.04 81.7013 443.512 81.7013 442.896ZM105.575 448H92.6395V446.196L96.5555 443.028V431.236L92.6395 428.552V426.748L100.603 423.668H102.715V444.348L106.675 445.8L105.575 448ZM99.5035 410.424C100.53 410.424 101.381 410.791 102.055 411.524C102.73 412.228 103.067 413.108 103.067 414.164C103.067 414.897 102.818 415.601 102.319 416.276C101.85 416.921 101.249 417.435 100.515 417.816C99.8115 418.197 99.1221 418.388 98.4475 418.388C97.4208 418.388 96.5701 418.036 95.8955 417.332C95.2208 416.628 94.8835 415.748 94.8835 414.692C94.8835 413.929 95.1181 413.225 95.5875 412.58C96.0861 411.935 96.6875 411.421 97.3915 411.04C98.1248 410.629 98.8288 410.424 99.5035 410.424ZM123.592 424.064C124.882 424.064 126.364 424.24 128.036 424.592C129.708 424.915 130.925 425.281 131.688 425.692V432.996H129.576C128.461 431.529 127.17 430.385 125.704 429.564C124.237 428.713 122.726 428.288 121.172 428.288C119.94 428.288 119.001 428.86 118.356 430.004C117.71 431.119 117.388 432.747 117.388 434.888C117.388 437.499 117.945 439.684 119.06 441.444C120.174 443.175 121.788 444.04 123.9 444.04C125.689 444.04 128.212 442.94 131.468 440.74L132.788 442.764L126.188 447.956C124.897 448.279 123.284 448.44 121.348 448.44C119.324 448.44 117.505 447.941 115.892 446.944C114.308 445.917 113.061 444.539 112.152 442.808C111.242 441.048 110.788 439.112 110.788 437C110.788 434.712 111.448 432.585 112.768 430.62C114.088 428.625 115.745 427.041 117.74 425.868C119.764 424.665 121.714 424.064 123.592 424.064ZM169.895 412.536C173.122 412.536 175.967 413.284 178.431 414.78C180.924 416.276 182.846 418.344 184.195 420.984C185.544 423.624 186.219 426.616 186.219 429.96C186.219 433.392 185.192 436.56 183.139 439.464C181.086 442.368 178.534 444.671 175.483 446.372C172.432 448.044 169.528 448.88 166.771 448.88C163.574 448.88 160.743 448.147 158.279 446.68C155.815 445.184 153.894 443.116 152.515 440.476C151.166 437.836 150.491 434.844 150.491 431.5C150.491 428.068 151.518 424.9 153.571 421.996C155.624 419.063 158.162 416.76 161.183 415.088C164.234 413.387 167.138 412.536 169.895 412.536ZM167.343 416.76C165.524 416.76 163.867 417.303 162.371 418.388C160.875 419.473 159.687 420.984 158.807 422.92C157.956 424.856 157.531 427.012 157.531 429.388C157.531 432.175 157.956 434.727 158.807 437.044C159.687 439.332 161.007 441.165 162.767 442.544C164.527 443.923 166.712 444.612 169.323 444.612C171.142 444.612 172.799 444.069 174.295 442.984C175.82 441.899 177.008 440.403 177.859 438.496C178.739 436.56 179.179 434.404 179.179 432.028C179.179 429.212 178.739 426.66 177.859 424.372C177.008 422.055 175.688 420.207 173.899 418.828C172.139 417.449 169.954 416.76 167.343 416.76ZM219.192 448H210.172V433.48C210.172 431.925 209.937 430.855 209.468 430.268C208.998 429.652 208.177 429.344 207.004 429.344C206.124 429.344 205.244 429.491 204.364 429.784C203.484 430.077 202.486 430.635 201.372 431.456V444.348L205.332 445.8L204.232 448H191.296V446.196L195.212 443.028V431.588L191.296 429.212V427.408L199.48 423.668L201.02 429.124L206.96 424.416C207.576 424.181 208.426 424.064 209.512 424.064C211.594 424.064 213.252 424.68 214.484 425.912C215.716 427.115 216.332 428.757 216.332 430.84V444.348L220.292 445.8L219.192 448ZM235.406 448H222.47V446.196L226.386 443.028V417.156L222.47 414.472V412.668L230.434 409.588H232.546V444.348L236.506 445.8L235.406 448ZM252.872 448H239.936V446.196L243.852 443.028V431.236L239.936 428.552V426.748L247.9 423.668H250.012V444.348L253.972 445.8L252.872 448ZM246.8 410.424C247.827 410.424 248.678 410.791 249.352 411.524C250.027 412.228 250.364 413.108 250.364 414.164C250.364 414.897 250.115 415.601 249.616 416.276C249.147 416.921 248.546 417.435 247.812 417.816C247.108 418.197 246.419 418.388 245.744 418.388C244.718 418.388 243.867 418.036 243.192 417.332C242.518 416.628 242.18 415.748 242.18 414.692C242.18 413.929 242.415 413.225 242.884 412.58C243.383 411.935 243.984 411.421 244.688 411.04C245.422 410.629 246.126 410.424 246.8 410.424ZM285.321 448H276.301V433.48C276.301 431.925 276.066 430.855 275.597 430.268C275.127 429.652 274.306 429.344 273.133 429.344C272.253 429.344 271.373 429.491 270.493 429.784C269.613 430.077 268.615 430.635 267.501 431.456V444.348L271.461 445.8L270.361 448H257.425V446.196L261.341 443.028V431.588L257.425 429.212V427.408L265.609 423.668L267.149 429.124L273.089 424.416C273.705 424.181 274.555 424.064 275.641 424.064C277.723 424.064 279.381 424.68 280.613 425.912C281.845 427.115 282.461 428.757 282.461 430.84V444.348L286.421 445.8L285.321 448ZM305.498 447.956C304.149 448.279 302.492 448.44 300.526 448.44C298.502 448.44 296.684 447.941 295.07 446.944C293.486 445.917 292.24 444.539 291.33 442.808C290.421 441.048 289.966 439.112 289.966 437C289.966 434.712 290.67 432.585 292.078 430.62C293.516 428.625 295.305 427.041 297.446 425.868C299.588 424.665 301.656 424.064 303.65 424.064C306.554 424.064 308.813 425.193 310.426 427.452C312.04 429.711 312.832 432.747 312.802 436.56H296.654C296.889 438.789 297.549 440.593 298.634 441.972C299.749 443.351 301.245 444.04 303.122 444.04C305.088 444.04 307.904 442.735 311.57 440.124L312.846 442.148L305.498 447.956ZM301.142 428.288C298.238 428.288 296.713 430.297 296.566 434.316H306.114C305.88 432.879 305.616 431.764 305.322 430.972C305.058 430.151 304.589 429.505 303.914 429.036C303.269 428.537 302.345 428.288 301.142 428.288ZM349.485 440.432C349.485 439.523 349.118 438.672 348.385 437.88C347.681 437.088 346.801 436.369 345.745 435.724C344.689 435.049 343.222 434.213 341.345 433.216C339.145 432.043 337.37 431.031 336.021 430.18C334.671 429.3 333.513 428.288 332.545 427.144C331.606 425.971 331.137 424.68 331.137 423.272C331.137 421.805 331.767 420.236 333.029 418.564C334.319 416.863 335.889 415.44 337.737 414.296C339.585 413.123 341.286 412.536 342.841 412.536C344.718 412.536 346.903 412.756 349.397 413.196C351.919 413.636 353.753 414.105 354.897 414.604V423.58H352.257C350.907 421.204 349.411 419.356 347.769 418.036C346.155 416.716 344.454 416.056 342.665 416.056C341.169 416.056 339.995 416.525 339.145 417.464C338.294 418.373 337.869 419.561 337.869 421.028C337.869 421.996 338.235 422.905 338.969 423.756C339.702 424.577 340.611 425.325 341.697 426C342.811 426.675 344.307 427.496 346.185 428.464C348.326 429.579 350.071 430.561 351.421 431.412C352.77 432.263 353.899 433.26 354.809 434.404C355.747 435.548 356.217 436.809 356.217 438.188C356.217 439.655 355.527 441.239 354.149 442.94C352.799 444.612 351.142 446.035 349.177 447.208C347.211 448.352 345.422 448.924 343.809 448.924C341.843 448.924 339.497 448.704 336.769 448.264C334.07 447.824 332.119 447.355 330.917 446.856V437.88H333.601C335.009 440.256 336.622 442.104 338.441 443.424C340.259 444.744 342.122 445.404 344.029 445.404C345.671 445.404 346.991 444.92 347.989 443.952C348.986 442.955 349.485 441.781 349.485 440.432ZM374.529 448.088C373.737 448.323 372.769 448.44 371.625 448.44C369.015 448.44 367.108 447.809 365.905 446.548C364.732 445.257 364.145 443.277 364.145 440.608V428.068H359.393V426.044L368.193 416.1H370.305V425.824H378.225V428.068H370.305V440.784C370.305 441.957 370.584 442.808 371.141 443.336C371.728 443.864 372.593 444.128 373.737 444.128C374.353 444.128 374.94 444.025 375.497 443.82C376.084 443.585 376.803 443.16 377.653 442.544L378.973 444.568L374.529 448.088ZM395.562 424.064C397.586 424.064 399.404 424.577 401.018 425.604C402.631 426.601 403.878 427.965 404.758 429.696C405.667 431.427 406.122 433.348 406.122 435.46C406.122 437.748 405.403 439.889 403.966 441.884C402.558 443.879 400.783 445.477 398.642 446.68C396.5 447.853 394.432 448.44 392.438 448.44C390.414 448.44 388.595 447.941 386.982 446.944C385.398 445.917 384.151 444.539 383.242 442.808C382.332 441.048 381.878 439.112 381.878 437C381.878 434.712 382.582 432.585 383.99 430.62C385.427 428.625 387.216 427.041 389.358 425.868C391.499 424.665 393.567 424.064 395.562 424.064ZM393.01 428.288C391.543 428.288 390.428 428.845 389.666 429.96C388.932 431.075 388.566 432.717 388.566 434.888C388.566 437.557 389.123 439.772 390.238 441.532C391.352 443.292 392.936 444.172 394.99 444.172C397.982 444.172 399.478 441.957 399.478 437.528C399.478 434.888 398.92 432.688 397.806 430.928C396.691 429.168 395.092 428.288 393.01 428.288ZM425.203 429.3C423.912 429.3 422.592 429.975 421.243 431.324V443.952L427.623 445.8L426.523 448H411.167V446.196L415.083 443.028V431.588L411.167 429.212V427.408L419.351 423.668L420.847 428.86L425.203 424.416C425.731 424.181 426.493 424.064 427.491 424.064C428.693 424.064 429.735 424.357 430.615 424.944C431.495 425.531 432.14 426.352 432.551 427.408L429.119 431.72H427.007C426.919 430.869 426.728 430.268 426.435 429.916C426.171 429.535 425.76 429.344 425.203 429.344V429.3ZM450.819 447.956C449.469 448.279 447.812 448.44 445.847 448.44C443.823 448.44 442.004 447.941 440.391 446.944C438.807 445.917 437.56 444.539 436.651 442.808C435.741 441.048 435.287 439.112 435.287 437C435.287 434.712 435.991 432.585 437.399 430.62C438.836 428.625 440.625 427.041 442.767 425.868C444.908 424.665 446.976 424.064 448.971 424.064C451.875 424.064 454.133 425.193 455.747 427.452C457.36 429.711 458.152 432.747 458.123 436.56H441.975C442.209 438.789 442.869 440.593 443.955 441.972C445.069 443.351 446.565 444.04 448.443 444.04C450.408 444.04 453.224 442.735 456.891 440.124L458.167 442.148L450.819 447.956ZM446.463 428.288C443.559 428.288 442.033 430.297 441.887 434.316H451.435C451.2 432.879 450.936 431.764 450.643 430.972C450.379 430.151 449.909 429.505 449.235 429.036C448.589 428.537 447.665 428.288 446.463 428.288Z" fill="black"/>
</svg>
